<?xml version="1.0" encoding="UTF-8" standalone="no"?>
<!-- Created with Inkscape (http://www.inkscape.org/) -->

<svg
   xmlns:dc="http://purl.org/dc/elements/1.1/"
   xmlns:cc="http://creativecommons.org/ns#"
   xmlns:rdf="http://www.w3.org/1999/02/22-rdf-syntax-ns#"
   xmlns:svg="http://www.w3.org/2000/svg"
   xmlns="http://www.w3.org/2000/svg"
   xmlns:xlink="http://www.w3.org/1999/xlink"
   xmlns:sodipodi="http://sodipodi.sourceforge.net/DTD/sodipodi-0.dtd"
   xmlns:inkscape="http://www.inkscape.org/namespaces/inkscape"
   id="svg3004"
   version="1.1"
   inkscape:version="0.48.3.1 r9886"
   width="1052.3625"
   height="1488.1875"
   xml:space="preserve"
   sodipodi:docname="agile.svg"><metadata
     id="metadata3010"><rdf:RDF><cc:Work
         rdf:about=""><dc:format>image/svg+xml</dc:format><dc:type
           rdf:resource="http://purl.org/dc/dcmitype/StillImage" /><dc:title /></cc:Work></rdf:RDF></metadata><defs
     id="defs3008"><clipPath
       clipPathUnits="userSpaceOnUse"
       id="clipPath3020"><path
         d="m 0,1190.551 841.89,0 L 841.89,0 0,0 0,1190.551 z"
         id="path3022" /></clipPath><path
       style="fill:none;stroke:#000000;stroke-width:1px;stroke-linecap:butt;stroke-linejoin:miter;stroke-opacity:1"
       d="M 0.45225714,898.07664 C -85.602643,774.79808 -115.91274,617.15792 -79.554343,471.06426 -14.079543,207.97636 258.09316,35.0534 523.64233,101.92869 769.07045,163.73674 930.29591,418.14148 867.02692,666.0162 808.88977,893.78546 572.24732,1043.3175 342.04856,983.64982 131.93706,929.18873 -5.9068429,710.30147 50.165957,497.78063 100.94446,305.32531 302.08556,179.16304 496.92596,231.64895 671.72695,278.73666 786.2163,462.14323 737.30667,639.29983 693.92071,796.44902 528.23302,899.27713 368.76494,853.92957 229.26406,814.26004 138.08096,666.26978 179.88616,524.497 215.81886,402.63965 346.14236,323.07799 470.20959,361.3692 574.43056,393.53522 642.40674,506.23845 607.58642,612.58346 579.23265,699.17891 484.07484,755.62861 395.48132,724.20931 326.49396,699.74325 281.46416,621.99701 309.60646,551.21337 c 20.439,-51.40832 81.05341,-85.23994 133.88676,-60.12391 33.87418,16.10317 57.07614,60.35451 34.37294,94.77763"
       id="path2999"
       inkscape:connector-curvature="0" /><path
       inkscape:connector-curvature="0"
       transform="matrix(-1,0,0,1,1361.2937,0)"
       style="fill:none;stroke:#000000;stroke-width:1px;stroke-linecap:butt;stroke-linejoin:miter;stroke-opacity:1"
       d="M 1495.8759,848.96678 C 1542.2629,508.91686 1373.4614,164.37407 1073.0751,-3.138523 681.19019,-221.67596 177.35774,-85.930024 -42.019037,308.19405 -252.52813,686.38679 -121.41465,1172.4214 259.0246,1383.7567 620.35385,1584.4764 1093.5197,1456.5864 1295.0558,1093.002 1487.818,745.24644 1364.6093,290.06578 1014.5901,96.502264 680.40846,-88.302917 243.21198,30.224771 57.621751,366.6791 -119.22711,687.2863 -5.3801908,1106.4997 317.50965,1284.1159 624.54204,1453.0092 1025.7737,1343.8428 1195.415,1034.517 1356.3536,741.05988 1251.8672,357.80846 956.10501,196.14305 676.22377,43.158293 310.95093,142.96488 157.26254,425.16414 12.230459,691.46888 107.35775,1038.7651 375.99469,1184.4752 628.72219,1321.5558 958.04408,1231.1073 1095.7742,976.03193 1224.905,736.88254 1139.1347,425.5323 897.61996,295.78384 672.04968,174.60119 378.66792,255.69403 256.90333,483.64919 143.66671,695.63915 220.0829,971.05625 434.47974,1084.8344 632.88793,1190.1275 890.345,1118.3869 996.13346,917.54689 1093.4861,732.7222 1026.42,493.21951 839.13491,395.42463 667.89589,306.00855 446.34049,368.4017 356.54411,542.13424 275.05988,699.78492 332.78194,903.40201 492.96479,985.19358"
       id="path4786" /><path
       style="fill:none;stroke:#000000;stroke-width:0.81125855px;stroke-linecap:butt;stroke-linejoin:miter;stroke-opacity:1"
       d="m -52.06581,127.38156 c 383.3869,-261.09328 754.7774,-70.03932 868.48102,169.74308 116.21315,245.0746 14.00096,550.5464 -233.23584,667.24981 C 350.86775,1074.0326 61.5248,976.98605 -48.59584,742.49893 -151.70065,522.95104 -59.819034,249.73437 161.9193,146.19827 368.70258,49.645132 625.796,136.36267 722.74539,345.35307 812.74898,539.37068 731.1945,780.34455 534.95093,870.70459 353.70027,954.16117 128.8415,877.76855 45.073977,694.27049 -31.838743,525.7883 39.39357,317.0391 210.14774,239.86809 c 155.71178,-70.37271 348.35837,-4.29889 418.92783,153.71342 63.83761,142.939 2.91992,319.49182 -142.35307,383.45327 -130.16314,57.3088 -290.63383,1.54424 -347.97869,-130.99273 -50.788313,-117.38326 -0.17292,-261.78743 119.63236,-312.50413 104.598,-44.27906 207.24304,-18.80742 262.74387,51.12917"
       id="path6292"
       inkscape:connector-curvature="0"
       sodipodi:nodetypes="cssssssssssssc" /><path
       style="fill:none;stroke:#000000;stroke-width:1px;stroke-linecap:butt;stroke-linejoin:miter;stroke-opacity:1"
       d="M 345.22333,76.962873 C 518.4899,78.336793 680.53999,181.12843 753.20512,338.83668 852.44003,554.21044 759.24534,819.65061 542.37803,919.2729 336.05217,1014.0528 81.890131,924.6861 -13.264587,716.86087 -103.58998,519.58318 -18.051065,276.69834 180.73242,186.01189 368.96164,100.14037 600.57028,181.85183 686.78776,371.59383 768.20612,550.77425 690.32175,771.10789 509.62085,852.85556 339.48969,929.82157 130.42965,855.76387 53.152773,684.10371 -19.361872,523.0222 50.869657,325.23416 213.48958,252.42924 365.52086,184.36485 552.03882,250.77077 620.37042,404.35099 683.98589,547.33139 621.40489,722.58158 476.86371,786.4382 342.93494,845.60638 178.94978,786.84949 119.57012,651.34655 64.84729,526.47035 119.78106,373.7468 246.24673,318.8466 c 115.8225,-50.27989 257.28864,0.83197 307.70633,118.26154 45.83996,106.7674 -1.45154,236.98145 -109.8465,282.9127 -97.71049,41.40382 -216.67935,-2.06919 -258.11908,-101.43143 -36.97265,-88.65131 2.68442,-196.38402 93.0164,-233.32546"
       id="path6385"
       inkscape:connector-curvature="0" /></defs><sodipodi:namedview
     pagecolor="#ffffff"
     bordercolor="#666666"
     borderopacity="1"
     objecttolerance="10"
     gridtolerance="10"
     guidetolerance="10"
     inkscape:pageopacity="0"
     inkscape:pageshadow="2"
     inkscape:window-width="960"
     inkscape:window-height="716"
     id="namedview3006"
     showgrid="false"
     inkscape:zoom="0.125"
     inkscape:cx="801.43486"
     inkscape:cy="94"
     inkscape:window-x="395"
     inkscape:window-y="175"
     inkscape:window-maximized="0"
     inkscape:current-layer="g3012" /><g
     id="g3012"
     inkscape:groupmode="layer"
     inkscape:label="zen_poster_white_dark_grey"
     transform="matrix(1.25,0,0,-1.25,0,1488.1875)"><path
   d="m 0,0 841.89,0 0,1190.551 -841.89,0 L 0,0 z"
   style="fill:#ffcc00;fill-opacity:1;fill-rule:nonzero;stroke:none"
   id="path3014" /><path
   style="fill:#000000;fill-opacity:1;fill-rule:nonzero;stroke:none"
   d="m 386.875,122.27496 c -5.58196,0 -10.1,-4.518 -10.1,-10.1 0,-5.58192 4.51804,-10.12496 10.1,-10.12496 5.58196,0 10.1,4.54304 10.1,10.12496 0,5.582 -4.51804,10.1 -10.1,10.1 z m 0,-3 c 3.9317,0 7.125,-3.16824 7.125,-7.1 0,-3.93168 -3.1933,-7.12496 -7.125,-7.12496 -3.9317,0 -7.125,3.19328 -7.125,7.12496 0,3.93176 3.1933,7.1 7.125,7.1 z"
   id="path4629"
   inkscape:connector-curvature="0" /><path
   inkscape:connector-curvature="0"
   id="path5770"
   style="fill:#000000;fill-opacity:1;fill-rule:nonzero;stroke:none"
   d="m 392.4722,112.165 c 0,-3.091 -2.505,-5.596 -5.596,-5.596 -3.091,0 -5.596,2.505 -5.596,5.596 0,3.091 2.505,5.597 5.596,5.597 3.091,0 5.596,-2.506 5.596,-5.597" /><g
   id="g5772"
   transform="translate(437.0469,112.165)"
   style="fill:#000000"><path
     d="m 0,0 c 0,-3.091 -2.505,-5.596 -5.596,-5.596 -3.091,0 -5.596,2.505 -5.596,5.596 0,3.091 2.505,5.597 5.596,5.597 C -2.505,5.597 0,3.091 0,0"
     style="fill:#000000;fill-opacity:1;fill-rule:nonzero;stroke:none"
     id="path5774"
     inkscape:connector-curvature="0" /></g><g
   id="g5776"
   transform="translate(481.6221,112.165)"
   style="fill:#000000"><path
     d="m 0,0 c 0,-3.091 -2.505,-5.596 -5.597,-5.596 -3.091,0 -5.595,2.505 -5.595,5.596 0,3.091 2.504,5.597 5.595,5.597 C -2.505,5.597 0,3.091 0,0"
     style="fill:#000000;fill-opacity:1;fill-rule:nonzero;stroke:none"
     id="path5778"
     inkscape:connector-curvature="0" /></g><g
   id="g5780"
   transform="translate(49.8965,52.3154)"
   style="fill:#000000"><path
     d="m 0,0 c -1.43,-1.014 -2.455,-2.317 -3.19,-3.828 -1.019,-2.094 -1.242,-4.607 -0.687,-6.821 1.046,-4.168 4.34,-7.129 8.981,-7.508 4.962,-0.406 8.625,2.819 10.01,6.38 0.771,1.979 0.923,4.735 0.098,6.967 -0.757,2.052 -1.946,3.547 -3.533,4.711 C 10.178,1.003 7.844,1.942 5.299,1.767 3.135,1.616 1.283,0.909 0,0 m 5.054,4.367 1.473,0 C 13.498,3.454 17.437,-0.49 18.353,-7.46 l 0,-1.472 C 17.438,-15.901 13.497,-19.844 6.527,-20.758 l -1.473,0 c -6.969,0.915 -10.912,4.856 -11.826,11.826 l 0,1.472 c 0.914,6.971 4.856,10.913 11.826,11.827"
     style="fill:#000000;fill-opacity:1;fill-rule:evenodd;stroke:none"
     id="path5782"
     inkscape:connector-curvature="0" /></g><g
   id="g5784"
   transform="translate(48.7676,42.5)"
   style="fill:#000000"><path
     d="m 0,0 3.239,0 c 0.826,-1.178 1.877,-2.407 4.024,-2.208 1.57,0.146 3.195,1.488 3.386,3.338 0.24,2.326 -1.46,4.61 -4.318,4.317 C 4.817,5.293 3.989,4.348 3.288,3.19 L 0,3.19 C 0.69,6.292 3.185,8.441 6.576,8.687 8.751,8.843 10.66,7.771 11.777,6.674 13.035,5.44 13.888,3.586 13.888,1.62 13.888,-2.303 10.816,-5.446 6.821,-5.446 3.079,-5.446 0.842,-3.021 0,0"
     style="fill:#000000;fill-opacity:1;fill-rule:evenodd;stroke:none"
     id="path5786"
     inkscape:connector-curvature="0" /></g><g
   id="g5788"
   transform="translate(81.4497,43.9805)"
   style="fill:#000000"><path
     d="m 0,0 c 0,0.096 -0.013,0.229 -0.024,0.324 -0.108,0.492 -0.504,0.9 -1.068,0.9 -0.827,0 -1.259,-0.744 -1.259,-1.667 0,-0.996 0.492,-1.62 1.247,-1.62 0.528,0 0.948,0.36 1.056,0.875 C -0.013,-1.055 0,-0.924 0,-0.768 L 0,0 z m 1.822,5.133 0,-6.764 c 0,-0.66 0.025,-1.355 0.049,-1.751 l -1.619,0 -0.084,0.863 -0.024,0 c -0.373,-0.659 -1.08,-0.995 -1.835,-0.995 -1.392,0 -2.507,1.188 -2.507,3.01 -0.012,1.98 1.223,3.119 2.627,3.119 0.719,0 1.283,-0.252 1.547,-0.66 l 0.024,0 0,3.178 1.822,0 z"
     style="fill:#000000;fill-opacity:1;fill-rule:nonzero;stroke:none"
     id="path5790"
     inkscape:connector-curvature="0" /></g><path
   d="m 84.74,46.463 1.823,0 0,-5.864 -1.823,0 0,5.864 z m 1.883,1.632 c 0,-0.504 -0.384,-0.911 -0.984,-0.911 -0.575,0 -0.959,0.407 -0.947,0.911 -0.012,0.527 0.372,0.923 0.96,0.923 0.587,0 0.959,-0.396 0.971,-0.923"
   style="fill:#000000;fill-opacity:1;fill-rule:nonzero;stroke:none"
   id="path5792"
   inkscape:connector-curvature="0" /><g
   id="g5794"
   transform="translate(88.0269,44.5322)"
   style="fill:#000000"><path
     d="m 0,0 c 0,0.864 -0.023,1.427 -0.048,1.931 l 1.571,0 0.06,-1.079 0.048,0 c 0.3,0.851 1.019,1.211 1.584,1.211 0.167,0 0.251,0 0.384,-0.024 l 0,-1.727 C 3.466,0.349 3.311,0.372 3.106,0.372 2.435,0.372 1.979,0.013 1.859,-0.552 1.835,-0.671 1.823,-0.815 1.823,-0.959 l 0,-2.975 L 0,-3.934 0,0 z"
     style="fill:#000000;fill-opacity:1;fill-rule:nonzero;stroke:none"
     id="path5796"
     inkscape:connector-curvature="0" /></g><g
   id="g5798"
   transform="translate(94.8784,48.0586)"
   style="fill:#000000"><path
     d="m 0,0 0,-1.596 1.308,0 0,-1.342 -1.308,0 0,-2.124 c 0,-0.708 0.168,-1.031 0.72,-1.031 0.252,0 0.359,0.013 0.54,0.048 L 1.271,-7.424 C 1.031,-7.52 0.6,-7.592 0.084,-7.592 c -0.588,0 -1.079,0.216 -1.367,0.516 -0.336,0.347 -0.504,0.912 -0.504,1.739 l 0,2.399 -0.779,0 0,1.342 0.779,0 0,1.104 L 0,0 z"
     style="fill:#000000;fill-opacity:1;fill-rule:nonzero;stroke:none"
     id="path5800"
     inkscape:connector-curvature="0" /></g><g
   id="g5802"
   transform="translate(98.6704,46.4629)"
   style="fill:#000000"><path
     d="m 0,0 0.876,-2.878 c 0.096,-0.348 0.216,-0.779 0.287,-1.091 l 0.036,0 c 0.084,0.312 0.181,0.755 0.265,1.091 L 2.183,0 4.138,0 2.771,-3.861 C 1.931,-6.188 1.367,-7.123 0.708,-7.711 0.072,-8.263 -0.6,-8.455 -1.056,-8.515 l -0.383,1.547 c 0.228,0.036 0.516,0.144 0.792,0.312 0.275,0.144 0.576,0.431 0.755,0.732 0.06,0.084 0.096,0.18 0.096,0.264 0,0.059 -0.012,0.156 -0.084,0.3 L -2.026,0 0,0 z"
     style="fill:#000000;fill-opacity:1;fill-rule:nonzero;stroke:none"
     id="path5804"
     inkscape:connector-curvature="0" /></g><g
   id="g5806"
   transform="translate(103.5786,44.5918)"
   style="fill:#000000"><path
     d="m 0,0 c 0,0.732 -0.023,1.355 -0.048,1.871 l 1.535,0 0.084,-0.791 0.036,0 c 0.252,0.371 0.768,0.924 1.775,0.924 0.756,0 1.355,-0.385 1.607,-0.996 l 0.025,0 c 0.215,0.312 0.479,0.54 0.755,0.708 0.324,0.192 0.683,0.288 1.116,0.288 1.127,0 1.978,-0.792 1.978,-2.543 l 0,-3.454 -1.775,0 0,3.19 c 0,0.852 -0.275,1.344 -0.863,1.344 -0.42,0 -0.72,-0.289 -0.84,-0.637 C 5.337,-0.227 5.313,-0.419 5.313,-0.563 l 0,-3.43 -1.775,0 0,3.286 c 0,0.744 -0.264,1.248 -0.84,1.248 -0.468,0 -0.743,-0.36 -0.851,-0.66 -0.06,-0.145 -0.072,-0.313 -0.072,-0.456 l 0,-3.418 L 0,-3.993 0,0 z"
     style="fill:#000000;fill-opacity:1;fill-rule:nonzero;stroke:none"
     id="path5808"
     inkscape:connector-curvature="0" /></g><g
   id="g5810"
   transform="translate(115.4458,43.5371)"
   style="fill:#000000"><path
     d="M 0,0 C 0,-1.008 0.42,-1.764 1.2,-1.764 1.907,-1.764 2.363,-1.056 2.363,0 2.363,0.875 2.027,1.763 1.2,1.763 0.324,1.763 0,0.863 0,0 m 4.246,0.061 c 0,-2.148 -1.523,-3.131 -3.095,-3.131 -1.714,0 -3.034,1.127 -3.034,3.022 0,1.895 1.248,3.107 3.131,3.107 1.799,0 2.998,-1.237 2.998,-2.998"
     style="fill:#000000;fill-opacity:1;fill-rule:nonzero;stroke:none"
     id="path5812"
     inkscape:connector-curvature="0" /></g><g
   id="g5814"
   transform="translate(120.8228,44.5918)"
   style="fill:#000000"><path
     d="m 0,0 c 0,0.732 -0.023,1.355 -0.048,1.871 l 1.583,0 0.084,-0.803 0.036,0 c 0.241,0.371 0.84,0.936 1.811,0.936 1.2,0 2.099,-0.792 2.099,-2.52 l 0,-3.477 -1.823,0 0,3.25 c 0,0.756 -0.263,1.271 -0.924,1.271 -0.504,0 -0.803,-0.347 -0.922,-0.683 -0.049,-0.12 -0.073,-0.288 -0.073,-0.456 l 0,-3.382 L 0,-3.993 0,0 z"
     style="fill:#000000;fill-opacity:1;fill-rule:nonzero;stroke:none"
     id="path5816"
     inkscape:connector-curvature="0" /></g><g
   id="g5818"
   transform="translate(129.6772,43.9922)"
   style="fill:#000000"><path
     d="M 0,0 0.023,0 C 0.156,0.24 0.3,0.48 0.443,0.708 l 1.188,1.763 2.195,0 -2.099,-2.374 2.399,-3.491 -2.243,0 L 0.468,-0.982 0,-1.559 l 0,-1.835 -1.823,0 0,8.515 L 0,5.121 0,0 z"
     style="fill:#000000;fill-opacity:1;fill-rule:nonzero;stroke:none"
     id="path5820"
     inkscape:connector-curvature="0" /></g><g
   id="g5822"
   transform="translate(137.7397,44.1973)"
   style="fill:#000000"><path
     d="M 0,0 C 0,0.443 -0.191,1.187 -1.031,1.187 -1.799,1.187 -2.11,0.491 -2.158,0 L 0,0 z m -2.146,-1.248 c 0.059,-0.756 0.803,-1.115 1.655,-1.115 0.624,0 1.127,0.084 1.619,0.24 L 1.367,-3.359 C 0.768,-3.599 0.036,-3.73 -0.755,-3.73 c -1.991,0 -3.131,1.163 -3.131,2.998 0,1.487 0.924,3.13 2.963,3.13 1.895,0 2.614,-1.475 2.614,-2.926 0,-0.312 -0.036,-0.588 -0.059,-0.72 l -3.778,0 z"
     style="fill:#000000;fill-opacity:1;fill-rule:nonzero;stroke:none"
     id="path5824"
     inkscape:connector-curvature="0" /></g><g
   id="g5826"
   transform="translate(141.8218,46.4629)"
   style="fill:#000000"><path
     d="m 0,0 0.876,-2.878 c 0.096,-0.348 0.216,-0.779 0.288,-1.091 l 0.035,0 c 0.084,0.312 0.181,0.755 0.265,1.091 L 2.183,0 4.138,0 2.771,-3.861 C 1.932,-6.188 1.367,-7.123 0.708,-7.711 0.072,-8.263 -0.6,-8.455 -1.056,-8.515 l -0.383,1.547 c 0.228,0.036 0.516,0.144 0.792,0.312 0.276,0.144 0.576,0.431 0.755,0.732 0.06,0.084 0.096,0.18 0.096,0.264 0,0.059 -0.012,0.156 -0.084,0.3 L -2.026,0 0,0 z"
     style="fill:#000000;fill-opacity:1;fill-rule:nonzero;stroke:none"
     id="path5828"
     inkscape:connector-curvature="0" /></g><g
   id="g5830"
   transform="translate(147.0786,40.4668)"
   style="fill:#000000"><path
     d="m 0,0 c -0.612,0 -1.056,0.468 -1.056,1.104 0,0.647 0.444,1.115 1.079,1.115 0.636,0 1.068,-0.456 1.068,-1.115 C 1.091,0.468 0.659,0 0.012,0 L 0,0 z"
     style="fill:#000000;fill-opacity:1;fill-rule:nonzero;stroke:none"
     id="path5832"
     inkscape:connector-curvature="0" /></g><g
   id="g5834"
   transform="translate(153.6763,40.7422)"
   style="fill:#000000"><path
     d="m 0,0 c -0.323,-0.144 -0.936,-0.275 -1.631,-0.275 -1.894,0 -3.106,1.163 -3.106,3.009 0,1.715 1.175,3.12 3.358,3.12 0.48,0 1.008,-0.084 1.392,-0.229 L -0.275,4.27 c -0.216,0.096 -0.54,0.179 -1.02,0.179 -0.96,0 -1.583,-0.683 -1.571,-1.642 0,-1.079 0.72,-1.643 1.607,-1.643 0.432,0 0.768,0.072 1.043,0.191 L 0,0 z"
     style="fill:#000000;fill-opacity:1;fill-rule:nonzero;stroke:none"
     id="path5836"
     inkscape:connector-curvature="0" /></g><g
   id="g5838"
   transform="translate(156.1011,43.5371)"
   style="fill:#000000"><path
     d="M 0,0 C 0,-1.008 0.42,-1.764 1.2,-1.764 1.907,-1.764 2.363,-1.056 2.363,0 2.363,0.875 2.027,1.763 1.2,1.763 0.324,1.763 0,0.863 0,0 m 4.246,0.061 c 0,-2.148 -1.523,-3.131 -3.095,-3.131 -1.714,0 -3.034,1.127 -3.034,3.022 0,1.895 1.248,3.107 3.131,3.107 1.799,0 2.998,-1.237 2.998,-2.998"
     style="fill:#000000;fill-opacity:1;fill-rule:nonzero;stroke:none"
     id="path5840"
     inkscape:connector-curvature="0" /></g><g
   id="g5842"
   transform="translate(161.9946,40.4668)"
   style="fill:#000000"><path
     d="m 0,0 c -0.612,0 -1.056,0.468 -1.056,1.104 0,0.647 0.444,1.115 1.079,1.115 0.636,0 1.068,-0.456 1.068,-1.115 C 1.091,0.468 0.659,0 0.012,0 L 0,0 z"
     style="fill:#000000;fill-opacity:1;fill-rule:nonzero;stroke:none"
     id="path5844"
     inkscape:connector-curvature="0" /></g><g
   id="g5846"
   transform="translate(169.7192,42.4814)"
   style="fill:#000000"><path
     d="m 0,0 c 0,-0.768 0.023,-1.392 0.048,-1.883 l -1.583,0 -0.084,0.827 -0.036,0 c -0.228,-0.359 -0.78,-0.959 -1.835,-0.959 -1.188,0 -2.063,0.744 -2.063,2.555 l 0,3.441 1.835,0 0,-3.154 c 0,-0.851 0.276,-1.367 0.911,-1.367 0.504,0 0.792,0.348 0.911,0.637 0.049,0.107 0.061,0.252 0.061,0.394 l 0,3.49 L 0,3.981 0,0 z"
     style="fill:#000000;fill-opacity:1;fill-rule:nonzero;stroke:none"
     id="path5848"
     inkscape:connector-curvature="0" /></g><g
   id="g5850"
   transform="translate(173.0093,43.9922)"
   style="fill:#000000"><path
     d="M 0,0 0.023,0 C 0.156,0.24 0.3,0.48 0.443,0.708 l 1.188,1.763 2.195,0 -2.099,-2.374 2.399,-3.491 -2.243,0 L 0.468,-0.982 0,-1.559 l 0,-1.835 -1.823,0 0,8.515 L 0,5.121 0,0 z"
     style="fill:#000000;fill-opacity:1;fill-rule:nonzero;stroke:none"
     id="path5852"
     inkscape:connector-curvature="0" /></g>









<text
   transform="matrix(0.75740679,0,0,-0.75740679,139.29518,1040.1702)"
   xml:space="preserve"
   style="font-size:62.07135773px;font-style:normal;font-variant:normal;font-weight:normal;font-stretch:normal;text-align:start;line-height:125%;letter-spacing:0px;word-spacing:0px;writing-mode:lr-tb;text-anchor:start;fill:#000000;fill-opacity:1;stroke:none;font-family:DejaVu Sans;-inkscape-font-specification:DejaVu Sans"
   id="text4755-6"
   sodipodi:linespacing="125%"><textPath
     xlink:href="#path6385"
     id="textPath6388"><tspan
   id="tspan4773-6"
   style="font-size:62.07135773px;font-style:normal;font-variant:normal;font-weight:normal;font-stretch:normal;text-align:start;line-height:125%;writing-mode:lr-tb;text-anchor:start;font-family:DejaVu Sans;-inkscape-font-specification:DejaVu Sans"><tspan
   style="font-size:62.07135773px;font-style:normal;font-variant:normal;font-weight:bold;font-stretch:normal;text-align:start;line-height:125%;writing-mode:lr-tb;text-anchor:start;font-family:DejaVu Sans;-inkscape-font-specification:DejaVu Sans Bold"
   id="tspan6298-3">Individuals and interactions</tspan> over processes and tools. <tspan
   id="tspan6379"
   style="font-weight:bold;-inkscape-font-specification:DejaVu Sans Bold">Working software</tspan> over comprehensive documentation. <tspan
   id="tspan6381"
   style="font-weight:bold;-inkscape-font-specification:DejaVu Sans Bold">Customer collaboration</tspan> over contract negotiation. <tspan
   id="tspan6383"
   style="font-weight:bold;-inkscape-font-specification:DejaVu Sans Bold">Responding to change</tspan> over following a plan</tspan></textPath></text>




<g
   id="g12398"
   transform="matrix(0.9457827,0,0,0.9457827,163.05343,-34.493476)"><path
     id="path1334"
     d="m 56.092566,96.513008 c -7.11054,-0.180356 -12.83112,-6.011651 -12.83112,-13.165401 0,-7.267301 5.8981,-13.1654 13.1654,-13.1654 7.2673,0 13.1654,5.898099 13.1654,13.1654 0,7.267302 -5.8981,13.165401 -13.1654,13.165401 -0.11355,0 -0.22141,0.0051 -0.33428,0 z m -0.0128,-2.262803 c 0.11665,0.0051 0.22959,0 0.34713,0 6.01823,0 10.9026,-4.884364 10.9026,-10.902598 0,-6.018233 -4.88437,-10.902597 -10.9026,-10.902597 -6.01823,0 -10.9026,4.884364 -10.9026,10.902597 0,5.900723 4.6996,10.716945 10.55547,10.902598 z"
     style="fill:#000000;fill-opacity:1;fill-rule:nonzero;stroke:none"
     inkscape:connector-curvature="0" /><path
     sodipodi:nodetypes="cccccssssccsssssc"
     id="path2371"
     d="m 50.714616,85.493362 -1.12761,0 2.55851,-2.867075 2.55851,2.867075 -0.92316,0 c 0.19999,1.398721 1.43045,2.298339 2.85169,2.185662 0.0562,-0.0051 0.1102,0 0.16714,0 2.31523,0 3.22833,-1.750947 3.30421,-4.332754 0.0792,-2.694484 -1.48255,-4.369421 -3.30421,-4.332754 -1.92272,0.03806 -2.6512,0.957578 -2.93136,2.352801 l -3.43278,0 c 0.56495,-3.213694 2.93089,-5.098301 6.287,-5.104164 3.79927,-0.0067 6.54413,3.171782 6.54413,7.084117 0,4.177906 -2.74391,7.084117 -6.54413,7.084117 -0.11283,0 -0.22285,0.0062 -0.33428,0 -0.027,0 -0.0502,4.63e-4 -0.0771,0 -2.3748,-0.0396 -5.5965,-1.703171 -5.59652,-4.937025 z"
     style="fill:#000000;fill-opacity:1;fill-rule:nonzero;stroke:none"
     inkscape:connector-curvature="0" /></g><text
   xml:space="preserve"
   style="font-size:10.50859928000000032px;font-style:normal;font-variant:normal;font-weight:bold;font-stretch:normal;text-align:start;line-height:125%;letter-spacing:-0.43999995px;word-spacing:0px;writing-mode:lr-tb;text-anchor:start;fill:#000000;fill-opacity:1;stroke:none;font-family:DejaVu Sans;-inkscape-font-specification:DejaVu Sans Bold"
   x="237.09183"
   y="-40.602757"
   id="text12402"
   sodipodi:linespacing="125%"
   transform="scale(1,-1)"><tspan
     sodipodi:role="line"
     id="tspan12404"
     x="237.09183"
     y="-40.602757">znc.com.br</tspan></text>



<g
   transform="scale(1,-1)"
   style="font-size:20.70667648px;font-style:normal;font-variant:normal;font-weight:bold;font-stretch:normal;text-align:start;line-height:125%;letter-spacing:0px;word-spacing:0px;writing-mode:lr-tb;text-anchor:start;fill:#aad400;fill-opacity:1;stroke:none;font-family:Untitled1;-inkscape-font-specification:Untitled1 Bold"
   id="text12410" /><g
   transform="scale(1,-1)"
   style="font-size:31.04972458px;font-style:normal;font-variant:normal;font-weight:bold;font-stretch:normal;text-align:start;line-height:125%;letter-spacing:-0.02491335px;word-spacing:0px;writing-mode:lr-tb;text-anchor:start;fill:#aad400;fill-opacity:1;stroke:none;font-family:Pothana2000;-inkscape-font-specification:Pothana2000 Bold"
   id="text13184" /><g
   transform="scale(1,-1)"
   style="font-size:25.27287102px;font-style:normal;font-variant:normal;font-weight:bold;font-stretch:normal;text-align:start;line-height:125%;letter-spacing:0px;word-spacing:0px;writing-mode:lr-tb;text-anchor:start;fill:#aad400;fill-opacity:1;stroke:none;font-family:Untitled1;-inkscape-font-specification:Untitled1 Bold"
   id="text13188"><path
     id="path13277"
     style="fill:#000000"
     d="m 546.51215,-610.2798 16.98021,0 0,3.59102 -6.10843,0 0,14.83301 -4.75101,0 0,-14.83301 -6.12077,0 0,-3.59102 m -18.97933,0 5.30631,0 6.70077,12.63644 0,-12.63644 4.5042,0 0,18.42403 -5.30632,0 -6.70077,-12.63644 0,12.63644 -4.50419,0 0,-18.42403 m -17.27637,0 12.82154,0 0,3.59102 -8.07054,0 0,3.4306 7.58927,0 0,3.59102 -7.58927,0 0,4.22037 8.34202,0 0,3.59102 -13.09302,0 0,-18.42403 m -25.17415,0 6.04673,0 4.19569,9.85988 4.22038,-9.85988 6.03439,0 0,18.42403 -4.49186,0 0,-13.47558 -4.24505,9.93392 -3.01103,0 -4.24505,-9.93392 0,13.47558 -4.5042,0 0,-18.42403 m -18.51041,0 7.88544,0 c 2.34463,2e-5 4.1422,0.52243 5.39269,1.56722 1.25869,1.0366 1.88805,2.51743 1.88806,4.4425 -1e-5,1.93331 -0.62937,3.42237 -1.88806,4.46717 -1.25049,1.03659 -3.04806,1.55488 -5.39269,1.55488 l -3.13443,0 0,6.39226 -4.75101,0 0,-18.42403 m 4.75101,3.44294 0,5.14589 2.62847,0 c 0.9214,10e-6 1.63302,-0.22211 2.13487,-0.66637 0.50183,-0.45247 0.75274,-1.09005 0.75276,-1.91274 -2e-5,-0.82268 -0.25093,-1.45614 -0.75276,-1.90041 -0.50185,-0.44423 -1.21347,-0.66636 -2.13487,-0.66637 l -2.62847,0 m -17.80701,-0.33319 c -1.44794,2e-5 -2.5709,0.53476 -3.3689,1.60424 -0.79801,1.0695 -1.19701,2.57501 -1.197,4.51654 -1e-5,1.93331 0.39899,3.43471 1.197,4.50419 0.798,1.0695 1.92096,1.60424 3.3689,1.60424 1.45614,0 2.58321,-0.53474 3.38123,-1.60424 0.79799,-1.06948 1.19699,-2.57088 1.19701,-4.50419 -2e-5,-1.94153 -0.39902,-3.44704 -1.19701,-4.51654 -0.79802,-1.06948 -1.92509,-1.60422 -3.38123,-1.60424 m 0,-3.44293 c 2.96165,2e-5 5.28162,0.84738 6.95991,2.54209 1.67826,1.69475 2.51739,4.03528 2.51741,7.02162 -2e-5,2.97812 -0.83915,5.31454 -2.51741,7.00927 -1.67829,1.69473 -3.99826,2.54209 -6.95991,2.54209 -2.95345,0 -5.27342,-0.84736 -6.95991,-2.54209 -1.67828,-1.69473 -2.51742,-4.03115 -2.51742,-7.00927 0,-2.98634 0.83914,-5.32687 2.51742,-7.02162 1.68649,-1.69471 4.00646,-2.54207 6.95991,-2.54209 m -23.61928,0.33318 4.751,0 0,14.83301 8.34202,0 0,3.59102 -13.09302,0 0,-18.42403 m -17.27638,0 12.82154,0 0,3.59102 -8.07053,0 0,3.4306 7.58926,0 0,3.59102 -7.58926,0 0,4.22037 8.34202,0 0,3.59102 -13.09303,0 0,-18.42403 m -21.74355,0 4.77568,0 4.88675,13.59898 4.87441,-13.59898 4.77568,0 -6.82417,18.42403 -5.66418,0 -6.82417,-18.42403 m -15.07981,0 12.82154,0 0,3.59102 -8.07054,0 0,3.4306 7.58927,0 0,3.59102 -7.58927,0 0,4.22037 8.34203,0 0,3.59102 -13.09303,0 0,-18.42403 m -16.22745,3.59102 0,11.24199 1.70295,0 c 1.94153,0 3.42236,-0.48127 4.4425,-1.44381 1.02834,-0.96254 1.54252,-2.3611 1.54254,-4.1957 -2e-5,-1.82634 -0.51008,-3.21668 -1.5302,-4.17101 -1.02014,-0.9543 -2.50508,-1.43145 -4.45484,-1.43147 l -1.70295,0 m -4.75101,-3.59102 5.01015,0 c 2.79712,2e-5 4.87851,0.20158 6.24418,0.60468 1.37387,0.3949 2.55031,1.0695 3.52932,2.0238 0.8638,0.83093 1.50549,1.78935 1.92508,2.87528 0.41955,1.08596 0.62933,2.31587 0.62935,3.68974 -2e-5,1.39035 -0.2098,2.6326 -0.62935,3.72677 -0.41959,1.08594 -1.06128,2.04437 -1.92508,2.87528 -0.98724,0.95431 -2.17191,1.63303 -3.554,2.03614 -1.38212,0.39489 -3.45529,0.59234 -6.2195,0.59234 l -5.01015,0 0,-18.42403 m 193.25985,-27.52751 15.75228,0 0,4.41185 -9.91529,0 0,4.21476 9.32401,0 0,4.41185 -9.32401,0 0,5.18506 10.24883,0 0,4.41185 -16.08582,0 0,-22.63537 m -15.57576,10.03658 c 1.22297,2e-5 2.09725,-0.2274 2.62285,-0.68224 0.53567,-0.45482 0.80352,-1.20276 0.80353,-2.24383 -1e-5,-1.03093 -0.26786,-1.76876 -0.80353,-2.2135 -0.5256,-0.44471 -1.39988,-0.66707 -2.62285,-0.66709 l -2.45609,0 0,5.80666 2.45609,0 m -2.45609,4.03283 0,8.56596 -5.83698,0 0,-22.63537 8.91467,0 c 2.98164,3e-5 5.16483,0.50034 6.54955,1.50094 1.39479,1.00065 2.09219,2.58244 2.09222,4.74539 -3e-5,1.4959 -0.36389,2.72394 -1.0916,3.68413 -0.71764,0.96021 -1.80417,1.66772 -3.25961,2.12254 0.79846,0.18194 1.51103,0.59634 2.1377,1.2432 0.63674,0.63677 1.27856,1.60707 1.92545,2.91091 l 3.16864,6.42826 -6.216,0 -2.75931,-5.62473 c -0.55591,-1.13201 -1.12192,-1.90522 -1.69803,-2.31963 -0.56602,-0.41439 -1.32407,-0.62159 -2.27415,-0.6216 l -1.65255,0 m -16.09121,4.44217 -9.12692,0 -1.4403,4.12379 -5.86731,0 8.38404,-22.63537 6.95889,0 8.38404,22.63537 -5.86731,0 -1.42513,-4.12379 m -7.67147,-4.19959 6.20085,0 -3.09284,-9.00564 -3.10801,9.00564 m -40.83398,-14.31199 5.59441,0 3.91154,16.44969 3.88122,-16.44969 5.62473,0 3.88121,16.44969 3.91154,-16.44969 5.54892,0 -5.33667,22.63537 -6.73148,0 -4.10863,-17.20773 -4.06315,17.20773 -6.73148,0 -5.38216,-22.63537 m -21.91305,0 20.86153,0 0,4.41185 -7.50469,0 0,18.22352 -5.83699,0 0,-18.22352 -7.51985,0 0,-4.41185 m -18.50183,0 15.75228,0 0,4.41185 -9.9153,0 0,4.21476 9.32402,0 0,4.41185 -9.32402,0 0,9.59691 -5.83698,0 0,-22.63537 m -16.01543,3.82058 c -1.7789,10e-6 -3.15855,0.65699 -4.13895,1.97092 -0.98042,1.31397 -1.47062,3.16361 -1.47061,5.54893 -10e-6,2.37523 0.49019,4.21982 1.47061,5.53376 0.9804,1.31396 2.36005,1.97094 4.13895,1.97093 1.78899,10e-6 3.17369,-0.65697 4.15412,-1.97093 0.98039,-1.31394 1.4706,-3.15853 1.47062,-5.53376 -2e-5,-2.38532 -0.49023,-4.23496 -1.47062,-5.54893 -0.98043,-1.31393 -2.36513,-1.97091 -4.15412,-1.97092 m 0,-4.22992 c 3.63863,2e-5 6.48889,1.04107 8.55081,3.12316 2.06187,2.08213 3.09282,4.95766 3.09284,8.62661 -2e-5,3.65886 -1.03097,6.52934 -3.09284,8.61145 -2.06192,2.08211 -4.91218,3.12316 -8.55081,3.12316 -3.62854,0 -6.4788,-1.04105 -8.5508,-3.12316 -2.0619,-2.08211 -3.09284,-4.95259 -3.09284,-8.61145 0,-3.66895 1.03094,-6.54448 3.09284,-8.62661 2.072,-2.08209 4.92226,-3.12314 8.5508,-3.12316 m -16.94023,1.12191 0,4.79088 c -1.24322,-0.55589 -2.4561,-0.97534 -3.63864,-1.25837 -1.18257,-0.28298 -2.29943,-0.42449 -3.35058,-0.4245 -1.39483,10e-6 -2.42577,0.19205 -3.09285,0.57611 -0.66709,0.3841 -1.00063,0.98043 -1.00062,1.789 -10e-6,0.60646 0.22235,1.0815 0.66708,1.42513 0.45482,0.33356 1.27352,0.62162 2.45608,0.86418 l 2.48641,0.50031 c 2.51671,0.50538 4.3057,1.27354 5.36699,2.30448 1.06125,1.03095 1.59188,2.49652 1.5919,4.39669 -2e-5,2.49651 -0.7429,4.35626 -2.22866,5.57924 -1.47569,1.21288 -3.73468,1.81932 -6.77697,1.81932 -1.43525,0 -2.87554,-0.13645 -4.32088,-0.40934 -1.44536,-0.2729 -2.8907,-0.67719 -4.33605,-1.21288 l 0,-4.92733 c 1.44535,0.76816 2.84016,1.34934 4.18444,1.74352 1.35437,0.38408 2.65822,0.57612 3.91153,0.57611 1.27352,10e-6 2.24887,-0.21225 2.92608,-0.63676 0.67717,-0.4245 1.01577,-1.03094 1.01578,-1.81932 -10e-6,-0.7075 -0.23248,-1.2533 -0.6974,-1.63739 -0.45485,-0.38407 -1.36956,-0.72771 -2.74414,-1.03094 l -2.25899,-0.50032 c -2.26405,-0.48514 -3.92165,-1.25835 -4.97281,-2.31963 -1.04106,-1.06126 -1.56158,-2.49144 -1.56158,-4.29056 0,-2.25392 0.72772,-3.98732 2.18318,-5.20022 1.45545,-1.21286 3.54767,-1.8193 6.27666,-1.81932 1.24319,2e-5 2.52176,0.096 3.83573,0.28806 1.31394,0.18195 2.67337,0.4599 4.07831,0.83385 m -47.72248,-0.71257 15.75228,0 0,4.41185 -9.9153,0 0,4.21476 9.32402,0 0,4.41185 -9.32402,0 0,5.18506 10.24884,0 0,4.41185 -16.08582,0 0,-22.63537 m -19.74503,0 5.83698,0 0,18.22352 10.24884,0 0,4.41185 -16.08582,0 0,-22.63537 m -11.55809,0 5.83698,0 0,22.63537 -5.83698,0 0,-22.63537 m -5.0995,20.9525 c -1.45548,0.70752 -2.96653,1.23815 -4.53314,1.59191 -1.56666,0.35375 -3.18383,0.53063 -4.85152,0.53063 -3.77005,0 -6.75676,-1.05116 -8.96015,-3.15348 -2.2034,-2.11243 -3.3051,-4.9728 -3.3051,-8.58113 0,-3.64873 1.12191,-6.51921 3.36574,-8.61145 2.24382,-2.09219 5.31645,-3.1383 9.21789,-3.13832 1.50598,2e-5 2.94627,0.14152 4.32088,0.4245 1.38469,0.28303 2.68853,0.70249 3.91154,1.25837 l 0,4.68475 c -1.26344,-0.71761 -2.5218,-1.2533 -3.77509,-1.60707 -1.24322,-0.35374 -2.49147,-0.53062 -3.74476,-0.53063 -2.3247,10e-6 -4.11875,0.65194 -5.38216,1.95576 -1.25332,1.29376 -1.87997,3.14845 -1.87996,5.56409 -10e-6,2.39545 0.60643,4.24509 1.81932,5.54893 1.21287,1.30385 2.93616,1.95577 5.1699,1.95576 0.60642,10e-6 1.16738,-0.0354 1.68287,-0.10612 0.52556,-0.0809 0.99555,-0.20215 1.40997,-0.36387 l 0,-4.39669 -3.56283,0 0,-3.91153 9.0966,0 0,10.88559 m -30.60031,-2.44092 -9.12692,0 -1.44029,4.12379 -5.86731,0 8.38403,-22.63537 6.9589,0 8.38403,22.63537 -5.8673,0 -1.42514,-4.12379 m -7.67146,-4.19959 6.20085,0 -3.09285,-9.00564 -3.108,9.00564 m 178.72457,-29.31504 c 0.81558,10e-6 1.39863,-0.15165 1.74914,-0.45498 0.35724,-0.30331 0.53586,-0.80211 0.53587,-1.49638 -10e-6,-0.68752 -0.17863,-1.17957 -0.53587,-1.47616 -0.35051,-0.29657 -0.93356,-0.44486 -1.74914,-0.44487 l -1.63793,0 0,3.87239 1.63793,0 m -1.63793,2.68944 0,5.71253 -3.89262,0 0,-15.09524 5.94508,0 c 1.98843,1e-5 3.44437,0.33366 4.36782,1.00095 0.93017,0.66732 1.39526,1.7222 1.39527,3.16465 -10e-6,0.99759 -0.24267,1.81656 -0.72797,2.45689 -0.47858,0.64035 -1.20318,1.11218 -2.17379,1.4155 0.53248,0.12133 1.00768,0.39769 1.4256,0.82907 0.42464,0.42466 0.85266,1.07174 1.28406,1.94125 l 2.11313,4.28693 -4.14538,0 -1.84014,-3.75106 c -0.37074,-0.75493 -0.7482,-1.27057 -1.1324,-1.54693 -0.37747,-0.27636 -0.883,-0.41454 -1.5166,-0.41454 l -1.10206,0 m -14.58972,-6.83482 c -1.18633,10e-6 -2.1064,0.43814 -2.76022,1.31439 -0.65383,0.87627 -0.98074,2.10977 -0.98073,3.70051 -10e-6,1.58401 0.3269,2.81414 0.98073,3.69039 0.65382,0.87627 1.57389,1.3144 2.76022,1.31439 1.19305,10e-6 2.11649,-0.43812 2.77033,-1.31439 0.65381,-0.87625 0.98072,-2.10638 0.98073,-3.69039 -10e-6,-1.59074 -0.32692,-2.82424 -0.98073,-3.70051 -0.65384,-0.87625 -1.57728,-1.31438 -2.77033,-1.31439 m 0,-2.82088 c 2.42655,10e-6 4.32736,0.69428 5.70242,2.0828 1.37504,1.38854 2.06257,3.3062 2.06258,5.75298 -10e-6,2.44005 -0.68754,4.35433 -2.06258,5.74286 -1.37506,1.38854 -3.27587,2.0828 -5.70242,2.0828 -2.41983,0 -4.32064,-0.69426 -5.70243,-2.0828 -1.37505,-1.38853 -2.06258,-3.30281 -2.06258,-5.74286 0,-2.44678 0.68753,-4.36444 2.06258,-5.75298 1.38179,-1.38852 3.2826,-2.08279 5.70243,-2.0828 m -21.05044,0.27299 10.505,0 0,2.9422 -6.61239,0 0,2.81077 6.21807,0 0,2.94221 -6.21807,0 0,6.40006 -3.89261,0 0,-15.09524 m -17.8959,2.54789 c -1.18633,10e-6 -2.1064,0.43814 -2.76022,1.31439 -0.65383,0.87627 -0.98074,2.10977 -0.98074,3.70051 0,1.58401 0.32691,2.81414 0.98074,3.69039 0.65382,0.87627 1.57389,1.3144 2.76022,1.31439 1.19305,10e-6 2.11649,-0.43812 2.77032,-1.31439 0.65381,-0.87625 0.98073,-2.10638 0.98074,-3.69039 -10e-6,-1.59074 -0.32693,-2.82424 -0.98074,-3.70051 -0.65383,-0.87625 -1.57727,-1.31438 -2.77032,-1.31439 m 0,-2.82088 c 2.42655,10e-6 4.32735,0.69428 5.70242,2.0828 1.37504,1.38854 2.06256,3.3062 2.06258,5.75298 -2e-5,2.44005 -0.68754,4.35433 -2.06258,5.74286 -1.37507,1.38854 -3.27587,2.0828 -5.70242,2.0828 -2.41983,0 -4.32064,-0.69426 -5.70243,-2.0828 -1.37505,-1.38853 -2.06258,-3.30281 -2.06258,-5.74286 0,-2.44678 0.68753,-4.36444 2.06258,-5.75298 1.38179,-1.38852 3.2826,-2.08279 5.70243,-2.0828 m -22.80971,0.27299 13.9123,0 0,2.9422 -5.00479,0 0,12.15304 -3.89261,0 0,-12.15304 -5.0149,0 0,-2.9422 m -2.61866,0.4752 0,3.19497 c -0.82909,-0.37071 -1.63794,-0.65044 -2.42656,-0.83918 -0.78865,-0.18872 -1.53347,-0.28309 -2.23447,-0.2831 -0.93018,10e-6 -1.61771,0.12808 -2.06257,0.3842 -0.44488,0.25615 -0.66731,0.65384 -0.66731,1.19306 0,0.40444 0.14829,0.72124 0.44487,0.95041 0.30332,0.22244 0.84929,0.41455 1.63793,0.57631 l 1.65815,0.33365 c 1.67837,0.33703 2.87143,0.8493 3.57918,1.53682 0.70774,0.68754 1.06161,1.6649 1.06163,2.9321 -2e-5,1.6649 -0.49544,2.90514 -1.48627,3.72073 -0.98412,0.80886 -2.49061,1.21328 -4.51948,1.21328 -0.95715,0 -1.91766,-0.091 -2.88154,-0.27298 -0.96389,-0.182 -1.92778,-0.45161 -2.89166,-0.80886 l 0,-3.28597 c 0.96388,0.51228 1.89407,0.89985 2.79055,1.16273 0.90322,0.25614 1.77273,0.38421 2.60856,0.3842 0.84929,10e-6 1.49974,-0.14154 1.95136,-0.42465 0.4516,-0.28309 0.6774,-0.68752 0.67741,-1.21328 -10e-6,-0.47182 -0.15504,-0.83581 -0.46509,-1.09195 -0.30333,-0.25613 -0.91334,-0.48531 -1.83003,-0.68753 l -1.50649,-0.33365 c -1.50987,-0.32353 -2.6153,-0.83918 -3.31631,-1.54693 -0.69427,-0.70774 -1.0414,-1.66152 -1.0414,-2.86133 0,-1.50311 0.48531,-2.65909 1.45594,-3.46796 0.97062,-0.80884 2.3659,-1.21327 4.18582,-1.21328 0.82907,10e-6 1.68174,0.064 2.55801,0.1921 0.87624,0.12134 1.78283,0.30671 2.71977,0.55609 m -24.65995,-0.4752 10.505,0 0,2.9422 -6.61239,0 0,2.81077 6.21807,0 0,2.94221 -6.21807,0 0,3.45786 6.83482,0 0,2.9422 -10.72743,0 0,-15.09524 m -14.15496,0 10.505,0 0,2.9422 -6.61239,0 0,2.81077 6.21807,0 0,2.94221 -6.21807,0 0,6.40006 -3.89261,0 0,-15.09524 m -7.72456,0 3.89261,0 0,15.09524 -3.89261,0 0,-15.09524 m -17.34993,0 4.34759,0 5.4901,10.35333 0,-10.35333 3.6904,0 0,15.09524 -4.34759,0 -5.4901,-10.35333 0,10.35333 -3.6904,0 0,-15.09524 m -6.85504,12.34514 -6.08663,0 -0.96052,2.7501 -3.91283,0 5.59121,-15.09524 4.6408,0 5.59121,15.09524 -3.91284,0 -0.9504,-2.7501 m -5.11601,-2.80066 4.13527,0 -2.06258,-6.00575 -2.07269,6.00575 m -24.67006,-9.54448 4.95423,0 3.43763,8.07843 3.45786,-8.07843 4.94412,0 0,15.09524 -3.68029,0 0,-11.04086 -3.47807,8.1391 -2.46701,0 -3.47807,-8.1391 0,11.04086 -3.6904,0 0,-15.09524 M 411.2192,-787.125 c -91.846,0 -166.304,74.457 -166.304,166.304 0,91.846 74.458,166.303 166.304,166.303 91.847,0 166.304,-74.457 166.304,-166.303 0,-91.847 -74.457,-166.304 -166.304,-166.304" /></g>








<text
   xml:space="preserve"
   style="font-size:9.60000038px;font-style:normal;font-variant:normal;font-weight:normal;font-stretch:normal;text-align:start;line-height:125%;letter-spacing:0px;word-spacing:0px;writing-mode:lr-tb;text-anchor:start;fill:#000000;fill-opacity:1;stroke:none;font-family:Droid Sans;-inkscape-font-specification:Droid Sans"
   x="687.71997"
   y="-40.680466"
   id="text9127"
   sodipodi:linespacing="125%"
   transform="scale(1,-1)"><tspan
     sodipodi:role="line"
     id="tspan9238"
     x="687.71997"
     y="-40.680466">http://agilemanifesto.org</tspan></text>

</g></svg>